<?xml version="1.0" standalone="no"?><!DOCTYPE svg PUBLIC "-//W3C//DTD SVG 1.1//EN" "http://www.w3.org/Graphics/SVG/1.1/DTD/svg11.dtd"><svg t="1604669564682" class="icon" viewBox="0 0 1024 1024" version="1.1" xmlns="http://www.w3.org/2000/svg" p-id="6810" xmlns:xlink="http://www.w3.org/1999/xlink" width="256" height="256"><defs><style type="text/css"></style></defs><path d="M1016.881326 529.18411 1008.393369 537.287707C1008.249234 537.447857 1008.025023 537.479887 1007.864873 537.624023L880.001001 653.236409C870.648233 662.188802 855.514044 662.188802 846.129246 653.236409L840.652111 645.164842C831.299343 636.228464 834.326181 621.718861 843.678949 612.766469L920.871317 543.549578 546.536378 543.549578 546.536378 918.252862 615.945449 841.701095C624.897842 832.348327 639.375414 829.305474 648.327807 838.658242L656.399374 844.135377C665.335752 853.520175 665.335752 868.654363 656.399374 878.007132L537.840225 1007.888896C537.680075 1008.065061 537.63203 1008.257241 537.47188 1008.417391L529.368283 1016.889334C524.932124 1021.581733 519.006569 1023.90391 513.129058 1023.87188 507.219518 1023.90391 501.342008 1021.581733 496.841789 1016.889334L488.738192 1008.417391C488.578042 1008.257241 488.546012 1008.049046 488.385862 1007.888896L372.78949 880.009008C363.837097 870.65624 363.837097 855.522052 372.78949 846.137254L380.861057 840.660119C389.797435 831.307351 404.307038 834.350203 413.259431 843.702972L482.476322 920.895339 482.476322 543.549578 103.128683 543.549578 180.321051 612.766469C189.673819 621.718861 192.716672 636.228464 183.363904 645.164842L177.886769 653.236409C168.501971 662.188802 153.367782 662.188802 144.015014 653.236409L16.135127 537.624023C15.974977 537.479887 15.766781 537.447857 15.606631 537.287707L7.134689 529.18411C2.44229 524.683891 0.120113 518.806381 0.152143 512.896841 0.120113 507.003316 2.44229 501.093775 7.134689 496.657617L8.624085 495.23228C11.763028 489.931311 16.359337 485.671317 21.900532 482.916734L146.016891 369.626525C155.369659 360.690147 170.503847 360.690147 179.888646 369.626525L185.36578 377.698092C194.718549 386.650485 191.675696 401.128058 182.322928 410.08045L105.77116 479.489521 482.476322 479.489521 482.476322 103.152706 413.259431 180.345074C404.307038 189.681827 389.797435 192.724679 380.861057 183.371911L372.78949 177.894776C363.837097 168.509978 363.837097 153.37579 372.78949 144.023022L488.385862 16.159149C488.546012 15.998999 488.578042 15.774789 488.738192 15.630654L496.841789 7.142696C501.342008 2.450297 507.219518 0.144135 513.129058 0.176165 519.006569 0.144135 524.932124 2.450297 529.368283 7.142696L530.793619 8.632093C536.078574 11.78705 540.354582 16.383359 543.109165 21.924554L656.399374 146.024898C665.335752 155.377667 665.335752 170.511855 656.399374 179.896653L648.327807 185.373788C639.375414 194.726556 624.897842 191.699718 615.945449 182.330935L546.536378 105.795183 546.536378 479.489521 918.22884 479.489521 841.677072 410.08045C832.324304 401.128058 829.297466 386.650485 838.650235 377.698092L844.127369 369.626525C853.496153 360.690147 868.646356 360.690147 877.999124 369.626525L1007.864873 488.185674C1008.057053 488.329809 1008.249234 488.393869 1008.393369 488.554019L1016.881326 496.657617C1021.55771 501.093775 1023.879887 507.003316 1023.847857 512.896841 1023.879887 518.806381 1021.55771 524.683891 1016.881326 529.18411Z" p-id="6811" fill="#2c2c2c"></path></svg>