<?xml version="1.0" standalone="no"?><!DOCTYPE svg PUBLIC "-//W3C//DTD SVG 1.1//EN" "http://www.w3.org/Graphics/SVG/1.1/DTD/svg11.dtd"><svg t="1604669455624" class="icon" viewBox="0 0 1024 1024" version="1.1" xmlns="http://www.w3.org/2000/svg" p-id="2871" xmlns:xlink="http://www.w3.org/1999/xlink" width="256" height="256"><defs><style type="text/css"></style></defs><path d="M168.763077 1013.76C281.993846 1019.470769 338.510769 898.166154 348.356923 816.836923L27.175385 777.452308C12.603077 876.307692 40.763077 1007.261538 168.763077 1013.76L168.763077 1013.76Z" p-id="2872"></path><path d="M456.861538 342.055385C444.390351 291.692581 445.751072 238.896599 460.8 189.243077 429.562919 160.85455 388.357628 145.986661 346.190769 147.889231 133.316923 151.236923 63.015385 320.393846 46.867692 421.021538 35.446154 490.929231 42.141538 612.036923 41.353846 711.483077L366.670769 750.867692C392.073846 666.978462 448.590769 593.329231 496.246154 531.692308 497.624615 529.92 498.806154 527.950769 500.184615 525.981538 492.991364 464.75058 478.988847 404.513345 458.436923 346.387692L456.861538 342.055385Z" p-id="2873"></path><path d="M567.138462 597.858462 892.061538 637.243077C925.144615 545.673846 970.830769 439.138462 982.843077 371.987692 1002.535385 271.753846 994.067692 88.812308 794.978462 12.8 774.806282 4.679463 753.311907 0.340536 731.569231 0 594.707692 0 515.938462 179.987692 517.513846 283.963077 523.435622 303.237534 527.588187 323.011649 529.92 343.04 553.944615 421.218462 578.953846 510.424615 567.138462 597.858462L567.138462 597.858462Z" p-id="2874"></path><path d="M657.723077 883.987692C672.819308 888.797483 688.550628 891.319804 704.393846 891.470769 798.72 891.470769 854.646154 794.584615 871.778462 709.907692L872.96 704.196923 551.581538 664.812308C541.735385 745.747692 561.427692 854.449231 657.723077 883.987692L657.723077 883.987692Z" p-id="2875"></path></svg>