<?xml version="1.0" standalone="no"?><!DOCTYPE svg PUBLIC "-//W3C//DTD SVG 1.1//EN" "http://www.w3.org/Graphics/SVG/1.1/DTD/svg11.dtd"><svg t="1604669504423" class="icon" viewBox="0 0 1024 1024" version="1.1" xmlns="http://www.w3.org/2000/svg" p-id="4371" xmlns:xlink="http://www.w3.org/1999/xlink" width="256" height="256"><defs><style type="text/css"></style></defs><path d="M512 0a511.9968 511.9968 0 1 0 511.9968 511.9968A511.9968 511.9968 0 0 0 512 0z m0 959.994a447.9972 447.9972 0 1 1 447.9972-447.9972 447.9972 447.9972 0 0 1-447.9972 447.9972z" p-id="4372" fill="#2c2c2c"></path><path d="M831.998 479.997h63.9996v63.9996h-63.9996zM697.054843 728.891444l45.247718-45.247717 45.247717 45.247717-45.247717 45.279717z" p-id="4373" fill="#2c2c2c"></path><path d="M706.430785 264.734345l44.287723-44.351722 44.287723 44.351722L750.718508 309.118068l-44.287723-44.383723z" p-id="4374" fill="#2c2c2c"></path><path d="M480.0002 831.9948h63.9996v63.9996h-63.9996z" p-id="4375" fill="#2c2c2c"></path><path d="M512 544.764595H224.0018a31.9998 31.9998 0 1 1 0-63.9996h255.9984V159.999a31.9998 31.9998 0 1 1 63.9996 0v352.765795a31.9998 31.9998 0 0 1-31.9998 31.9998z" p-id="4376" fill="#2c2c2c"></path><path d="M219.649827 266.334335l45.247717-45.247717 45.279717 45.247717-45.279717 45.247718z" p-id="4377" fill="#2c2c2c"></path><path d="M304.0333 730.619434l-44.287723 44.383722-44.287724-44.383722 44.287724-44.383723 44.287723 44.383723z" p-id="4378" fill="#2c2c2c"></path></svg>