<?xml version="1.0" standalone="no"?><!DOCTYPE svg PUBLIC "-//W3C//DTD SVG 1.1//EN" "http://www.w3.org/Graphics/SVG/1.1/DTD/svg11.dtd"><svg t="1604494816123" class="icon" viewBox="0 0 1024 1024" version="1.1" xmlns="http://www.w3.org/2000/svg" p-id="1755" xmlns:xlink="http://www.w3.org/1999/xlink" width="256" height="256"><defs><style type="text/css"></style></defs><path d="M255.5 595.79c-70.29-45.31-112.74-123.23-112.69-206.86C142.8 253 253 142.8 388.93 142.8c114.69 0 211.05 78.44 238.38 184.6h100.05c84.96 0 153.83 68.87 153.83 153.83s-68.87 153.83-153.83 153.83h-369.2c-37.89 0.06-74.47-13.93-102.66-39.27z" fill="#2E3133" p-id="1756"></path><path d="M385.08 680.98c21.88 5.87 34.87 28.36 29 50.24s-28.36 34.87-50.24 29c-21.88-5.87-34.86-28.36-29-50.24 5.86-21.88 28.35-34.87 50.23-29.01 0 0.01 0 0.01 0.01 0.01z m328.17 0c21.88 5.87 34.86 28.36 29 50.25-5.87 21.88-28.36 34.86-50.25 29-21.88-5.87-34.86-28.36-29-50.24 5.87-21.89 28.36-34.87 50.25-29.01z m-164.08 0c21.88 5.87 34.87 28.36 29 50.24-5.87 21.88-28.36 34.87-50.24 29-21.88-5.87-34.86-28.36-29-50.24 5.85-21.88 28.35-34.86 50.24-29-0.01 0-0.01 0 0 0z m82.04 123.07c21.88 5.87 34.87 28.36 29 50.24-5.87 21.88-28.36 34.87-50.24 29-21.88-5.86-34.87-28.36-29-50.24 5.86-21.88 28.35-34.87 50.24-29z m-164.09 0c21.88 5.87 34.87 28.36 29 50.24-5.87 21.88-28.36 34.87-50.24 29-21.88-5.87-34.87-28.36-29-50.24 5.86-21.88 28.36-34.87 50.24-29z" fill="#2E3133" opacity=".3" p-id="1757"></path></svg>