<?xml version="1.0" standalone="no"?><!DOCTYPE svg PUBLIC "-//W3C//DTD SVG 1.1//EN" "http://www.w3.org/Graphics/SVG/1.1/DTD/svg11.dtd"><svg t="1604494373254" class="icon" viewBox="0 0 1024 1024" version="1.1" xmlns="http://www.w3.org/2000/svg" p-id="1309" xmlns:xlink="http://www.w3.org/1999/xlink" width="256" height="256"><defs><style type="text/css"></style></defs><path d="M553.02 676.09c-90.62 0-164.09-73.46-164.09-164.09s73.46-164.09 164.09-164.09S717.11 421.38 717.11 512s-73.47 164.09-164.09 164.09z m307.66-225.62h61.53c33.98 0.14 61.42 27.8 61.28 61.78-0.14 33.79-27.49 61.15-61.28 61.28h-61.53c-33.98-0.14-61.42-27.8-61.28-61.78 0.14-33.78 27.49-61.14 61.28-61.28zM719.6 260.59l43.51-43.51c24.03-24.03 62.99-24.03 87.02 0 24.03 24.03 24.03 62.99 0 87.02l-43.51 43.51c-24.03 24.03-62.99 24.03-87.02 0-24.03-24.03-24.03-62.99 0-87.02zM553.02 81.27c33.98 0 61.53 27.55 61.53 61.53v61.53c0 33.98-27.55 61.53-61.53 61.53s-61.53-27.55-61.53-61.53V142.8c0-33.98 27.55-61.53 61.53-61.53zM258.1 217.08c24.03-24.03 62.99-24.03 87.02 0l43.51 43.51c24.03 24.03 24.03 62.99 0 87.02s-62.99 24.03-87.02 0L258.1 304.1c-5.73-14.52 47.21-51.59 0-87.02z" fill="#2E3133" opacity=".3" p-id="1310"></path><path d="M214.48 841.92c-70.29-45.31-112.74-123.23-112.69-206.86 0-135.93 110.2-246.13 246.13-246.13 114.69 0 211.05 78.44 238.38 184.6h100.05c84.96 0 153.83 68.87 153.83 153.83S771.3 881.2 686.34 881.2h-369.2c-37.9 0.05-74.48-13.94-102.66-39.28z" fill="#2E3133" p-id="1311"></path></svg>