<?xml version="1.0" standalone="no"?><!DOCTYPE svg PUBLIC "-//W3C//DTD SVG 1.1//EN" "http://www.w3.org/Graphics/SVG/1.1/DTD/svg11.dtd"><svg t="1604494884461" class="icon" viewBox="0 0 1024 1024" version="1.1" xmlns="http://www.w3.org/2000/svg" p-id="1903" xmlns:xlink="http://www.w3.org/1999/xlink" width="256" height="256"><defs><style type="text/css"></style></defs><path d="M102.78 224.85h818.43c0.55 0 1 0.45 1 1v80.04c0 0.55-0.45 1-1 1H102.78c-0.55 0-1-0.45-1-1v-80.04c0-0.55 0.45-1 1-1zM102.78 717.11h818.43c0.55 0 1 0.45 1 1v80.04c0 0.55-0.45 1-1 1H102.78c-0.55 0-1-0.45-1-1v-80.04c0-0.55 0.45-1 1-1zM102.78 388.93h203.11c0.55 0 1 0.45 1 1v80.04c0 0.55-0.45 1-1 1H102.78c-0.55 0-1-0.45-1-1v-80.04c0-0.55 0.45-1 1-1zM677.09 553.02h244.13c0.55 0 1 0.45 1 1v80.04c0 0.55-0.45 1-1 1H677.09c-0.55 0-1-0.45-1-1v-80.04c0-0.55 0.44-1 1-1zM389.93 388.93h531.28c0.55 0 1 0.45 1 1v80.04c0 0.55-0.45 1-1 1H389.93c-0.55 0-1-0.45-1-1v-80.04c0-0.55 0.45-1 1-1zM102.78 553.02h490.26c0.55 0 1 0.45 1 1v80.04c0 0.55-0.45 1-1 1H102.78c-0.55 0-1-0.45-1-1v-80.04c0-0.55 0.45-1 1-1z" fill="#2E3133" opacity=".3" p-id="1904"></path></svg>