<?xml version="1.0" standalone="no"?><!DOCTYPE svg PUBLIC "-//W3C//DTD SVG 1.1//EN" "http://www.w3.org/Graphics/SVG/1.1/DTD/svg11.dtd"><svg t="1604498105016" class="icon" viewBox="0 0 1024 1024" version="1.1" xmlns="http://www.w3.org/2000/svg" p-id="12562" xmlns:xlink="http://www.w3.org/1999/xlink" width="256" height="256"><defs><style type="text/css"></style></defs><path d="M682.666667 384a21.333333 21.333333 0 0 0-21.333334 21.333333v33.28c-22.826667-28.040533-53.5552-45.371733-87.415466-45.371733-70.186667 0-127.291733 74.018133-127.291734 164.992 0 90.965333 57.096533 164.9664 127.291734 164.9664 33.860267 0 64.5888-17.322667 87.415466-45.354667V704a21.333333 21.333333 0 1 0 42.666667 0v-298.666667A21.333333 21.333333 0 0 0 682.666667 384zM573.917867 680.533333c-46.660267 0-84.625067-54.869333-84.625067-122.299733 0-67.447467 37.9648-122.325333 84.625067-122.325333 46.6688 0 84.6336 54.877867 84.6336 122.325333 0 67.4304-37.9648 122.299733-84.6336 122.299733zM380.177067 335.650133a21.3248 21.3248 0 0 0-20.155734-17.271466c-9.864533-0.580267-18.781867 6.144-21.376 15.726933l-76.945066 283.409067-71.150934-283.025067c-2.423467-9.634133-11.0336-16.452267-21.102933-16.128a21.333333 21.333333 0 0 0-20.462933 16.930133l-76.373334 362.171734a21.333333 21.333333 0 0 0 41.7536 8.8064l57.3184-271.8208 68.539734 272.6144a21.333333 21.333333 0 0 0 20.488533 16.136533c9.403733-0.068267 18.244267-6.3744 20.7872-15.744l74.222933-273.408 51.669334 267.588267a21.333333 21.333333 0 0 0 41.890133-8.0896l-69.102933-357.896534zM874.427733 552.507733l83.968-138.436266a21.333333 21.333333 0 0 0-36.488533-22.126934l-72.465067 119.466667-72.635733-119.4752a21.3248 21.3248 0 1 0-36.4544 22.1696l84.1472 138.427733-82.602667 136.174934a21.3504 21.3504 0 0 0 36.488534 22.135466l71.099733-117.213866 71.278933 117.239466a21.307733 21.307733 0 0 0 29.312 7.1424 21.3248 21.3248 0 0 0 7.1424-29.312l-82.7904-136.192z" fill="#333333" p-id="12563"></path></svg>