<?xml version="1.0" standalone="no"?><!DOCTYPE svg PUBLIC "-//W3C//DTD SVG 1.1//EN" "http://www.w3.org/Graphics/SVG/1.1/DTD/svg11.dtd"><svg t="1604494797023" class="icon" viewBox="0 0 1024 1024" version="1.1" xmlns="http://www.w3.org/2000/svg" p-id="1607" xmlns:xlink="http://www.w3.org/1999/xlink" width="256" height="256"><defs><style type="text/css"></style></defs><path d="M255.5 595.79c-70.29-45.31-112.74-123.23-112.69-206.86C142.8 253 253 142.8 388.93 142.8c114.69 0 211.05 78.44 238.38 184.6h100.05c84.96 0 153.83 68.87 153.83 153.83s-68.87 153.83-153.83 153.83h-369.2c-37.89 0.06-74.47-13.93-102.66-39.27z" fill="#2E3133" p-id="1608"></path><path d="M286.38 881.19c-33.98 0-61.53-27.55-61.53-61.53 0-22.66 20.51-56.84 61.53-102.55 41.02 45.71 61.53 79.9 61.53 102.55 0 33.99-27.55 61.53-61.53 61.53z m205.11 0c-33.98 0-61.53-27.55-61.53-61.53 0-22.66 20.51-56.84 61.53-102.55 41.02 45.71 61.53 79.9 61.53 102.55 0 33.99-27.55 61.53-61.53 61.53z m205.11 0c-33.98 0-61.53-27.55-61.53-61.53 0-22.66 20.51-56.84 61.53-102.55 41.02 45.71 61.53 79.9 61.53 102.55 0 33.99-27.55 61.53-61.53 61.53z" fill="#2E3133" opacity=".3" p-id="1609"></path></svg>