<?xml version="1.0" standalone="no"?><!DOCTYPE svg PUBLIC "-//W3C//DTD SVG 1.1//EN" "http://www.w3.org/Graphics/SVG/1.1/DTD/svg11.dtd"><svg t="1604498131838" class="icon" viewBox="0 0 1024 1024" version="1.1" xmlns="http://www.w3.org/2000/svg" p-id="14889" xmlns:xlink="http://www.w3.org/1999/xlink" width="256" height="256"><defs><style type="text/css"></style></defs><path d="M563.2 443.733333a21.333333 21.333333 0 0 0-21.333333 21.333334v247.466666a21.333333 21.333333 0 1 0 42.666666 0v-247.466666A21.333333 21.333333 0 0 0 563.2 443.733333zM563.2 332.8a21.333333 21.333333 0 0 0-21.333333 21.333333v34.133334a21.333333 21.333333 0 1 0 42.666666 0v-34.133334A21.333333 21.333333 0 0 0 563.2 332.8zM430.3104 346.3168a21.3248 21.3248 0 0 0-20.155733-17.271467 21.205333 21.205333 0 0 0-21.376 15.726934l-76.945067 283.409066-71.150933-283.025066a21.026133 21.026133 0 0 0-21.102934-16.128 21.333333 21.333333 0 0 0-20.462933 16.930133l-76.3648 362.1632a21.333333 21.333333 0 0 0 41.7536 8.8064l57.3184-271.8208 68.539733 272.6144a21.333333 21.333333 0 0 0 20.488534 16.136533 21.572267 21.572267 0 0 0 20.7872-15.744l74.222933-273.408 51.669333 267.588267a21.333333 21.333333 0 0 0 41.890134-8.0896l-69.111467-357.888zM743.850667 445.1584c-25.0112 0-47.6672 12.296533-65.450667 32.964267V465.066667a21.333333 21.333333 0 1 0-42.666667 0v247.466666c0 11.0848 8.482133 20.087467 19.293867 21.128534 1.877333 0.5376 3.805867 0.913067 5.853867 0.913066a21.333333 21.333333 0 0 0 21.333333-21.333333V597.3504c0-58.3424 28.808533-109.525333 61.6448-109.525333 34.9696 0 66.3552 6.9632 66.3552 91.016533v134.4a21.333333 21.333333 0 1 0 42.666667 0v-134.4c-0.008533-89.949867-35.6608-133.6832-109.0304-133.6832z" fill="#333333" p-id="14890"></path></svg>