<?xml version="1.0" standalone="no"?><!DOCTYPE svg PUBLIC "-//W3C//DTD SVG 1.1//EN" "http://www.w3.org/Graphics/SVG/1.1/DTD/svg11.dtd"><svg t="1604495098607" class="icon" viewBox="0 0 1024 1024" version="1.1" xmlns="http://www.w3.org/2000/svg" p-id="2346" xmlns:xlink="http://www.w3.org/1999/xlink" width="256" height="256"><defs><style type="text/css"></style></defs><path d="M369.86 594.04c45.34-78.5 145.73-105.38 224.23-60.04a164.171 164.171 0 0 1 60.04 60.04H369.86z m306.23 82.05z m-492.26 0h656.35c22.66 0 41.02 18.36 41.02 41.02 0 22.66-18.36 41.02-41.02 41.02H183.83c-22.66 0-41.02-18.36-41.02-41.02-0.01-22.66 18.36-41.02 41.02-41.02z" fill="#2E3133" p-id="2347"></path><path d="M678.58 383.66l43.51-43.51c24.03-24.03 62.99-24.03 87.02 0 24.03 24.03 24.03 62.99 0 87.02l-43.51 43.51c-24.14 23.92-63.1 23.74-87.02-0.39-23.77-23.99-23.77-62.65 0-86.63zM512 204.34c33.98 0 61.53 27.55 61.53 61.53v61.53c-0.14 33.98-27.8 61.42-61.78 61.28-33.79-0.14-61.15-27.49-61.28-61.28v-61.53c0-33.98 27.55-61.53 61.53-61.53zM217.08 340.15c24.03-24.03 62.99-24.03 87.02 0l43.51 43.51c24.03 24.03 24.03 62.99 0 87.02-24.03 24.03-62.99 24.03-87.02 0l-43.51-43.51c-24.03-24.03-24.03-62.99 0-87.02z" fill="#2E3133" opacity=".3" p-id="2348"></path></svg>