<?xml version="1.0" standalone="no"?><!DOCTYPE svg PUBLIC "-//W3C//DTD SVG 1.1//EN" "http://www.w3.org/Graphics/SVG/1.1/DTD/svg11.dtd"><svg t="1604672970431" class="icon" viewBox="0 0 1024 1024" version="1.1" xmlns="http://www.w3.org/2000/svg" p-id="3989" xmlns:xlink="http://www.w3.org/1999/xlink" width="256" height="256"><defs><style type="text/css"></style></defs><path d="M920.681931 400.489931c-28.848552-8.651034-57.167448 5.437793-73.904552 16.807724a14.724414 14.724414 0 0 0-6.038069-1.235862 29.519448 29.519448 0 0 0-12.711724 2.930759 334.071172 334.071172 0 0 0-41.313103-69.031724h2.224551s21.645241-36.934621 41.313104-54.413242c19.632552-17.513931 117.936552-50.529103 58.968276-103.035586-58.968276-52.471172-80.613517 54.448552-80.613517 69.985103 0 15.536552-29.484138 56.35531-29.484138 56.355311l-10.981518 9.180689a340.073931 340.073931 0 0 0-71.044413-59.074206 31.638069 31.638069 0 0 0 0.741517-6.461794c0-24.717241-34.109793-49.222621-64.229517-43.431724-30.119724 5.826207-27.824552 2.118621-38.558897 7.768276-1.129931-0.282483-2.259862-0.459034-3.354483-0.706207-13.029517-49.681655-41.101241-96.715034-42.619586-119.066482-1.977379-29.166345 17.655172-108.861793-49.152-93.289932-66.877793 15.536552-31.461517 56.35531-23.622621 69.949794 7.874207 13.629793 53.424552 11.617103 63.240828 62.146206 6.17931 31.77931 12.111448 42.690207 12.958897 73.869242a339.791448 339.791448 0 0 0-187.674483 33.650758 28.742621 28.742621 0 0 0-13.064828-3.177931c-0.670897 0-1.306483 0.141241-1.977379 0.176552-18.326069-26.906483-39.724138-59.250759-39.97131-63.699862-0.423724-7.768276-19.561931-103.000276-43.431725-108.861793-23.869793-5.826207-63.205517 13.629793-59.250758 46.680276 3.919448 33.015172 57.026207 71.891862 68.819862 81.637517 6.779586 5.543724 31.214345 34.816 50.811586 58.721104a28.001103 28.001103 0 0 0-3.742897 13.135448 337.849379 337.849379 0 0 0-111.933793 130.259862c-27.895172-23.198897-83.579586-62.569931-126.057931-48.587035-58.968276 19.42069-115.994483 85.521655-27.542069 106.919725 26.941793 4.519724 38.841379-36.934621 62.675862-36.934621 14.194759 0 49.893517 6.885517 76.482207 12.464552a330.363586 330.363586 0 0 0-13.523862 50.352551c-15.713103 2.295172-27.965793 19.49131-27.965793 40.606897 0 18.749793 9.710345 34.392276 22.881104 39.300414 1.200552 21.46869 4.590345 42.372414 9.710344 62.569931l-0.07062 0.141241c-9.463172 20.833103-63.311448 82.237793-79.059862 93.925517-15.713103 11.687724 13.771034 64.123586 31.461517 66.030345 17.690483 1.977379 37.358345-46.609655 37.358345-68.007724 0-13.34731 13.841655-35.098483 24.222896-49.505103a338.308414 338.308414 0 0 0 172.279173 180.329931c-6.850207 23.340138-17.090207 55.578483-22.245518 76.482206-7.874207 32.061793 35.098483 72.068414 53.000828 65.359449 21.504-8.050759 31.77931-34.498207 12.852966-53.071449-14.477241-14.159448-8.898207-45.550345-4.237242-73.622068 33.474207 10.593103 68.466759 16.030897 103.635862 15.995586a341.662897 341.662897 0 0 0 126.552276-24.152276c6.567724 13.135448 10.593103 25.847172 6.214621 35.416276-8.968828 19.42069 6.497103 36.510897 25.070345 36.510896 15.501241 0 36.369655-42.443034 21.115586-64.441379a670.75531 670.75531 0 0 0-17.549242-23.728552 340.179862 340.179862 0 0 0 90.535725-70.267586 25.423448 25.423448 0 0 0 4.590344 0.494345c14.830345 27.859862 41.913379 64.017655 31.567449 86.439724-11.087448 24.011034 8.050759 45.161931 31.037793 45.161931 19.138207 0 44.985379-52.471172 26.129655-79.695448-17.655172-25.423448-53.459862-69.031724-62.569931-83.685517a28.071724 28.071724 0 0 0-1.483035-5.579035 333.682759 333.682759 0 0 0 32.061794-58.650483h0.07062c15.783724-3.425103 64.829793 32.556138 117.936552 36.440276 53.071448 3.884138 25.529379-52.471172 0-71.927172-25.56469-19.42069-100.740414-17.054897-100.740414-17.054897a332.76469 332.76469 0 0 0 7.980138-101.234758c15.148138-8.474483 16.41931-33.82731 8.580414-54.483863-3.10731-8.192-3.884138-19.067586-5.12-29.201655 9.816276-4.307862 20.268138-8.439172 28.318896-12.111448 17.725793-8.086069 47.209931-1.659586 59.003587 9.992828 11.793655 11.652414 35.380966 36.934621 51.129379 19.420689 15.713103-17.478621-31.461517-48.551724-76.694069-62.146207z m-413.73131 123.409655c-12.429241 22.245517-61.016276 19.244138-108.579311-6.673655-47.527724-25.917793-76.023172-64.971034-63.593931-87.216552 12.393931-22.245517 61.016276-19.244138 108.544 6.673655 47.563034 25.917793 76.023172 64.971034 63.629242 87.216552z m237.885793-6.673655c-47.527724 25.917793-96.150069 28.919172-108.579311 6.673655-12.393931-22.245517 16.066207-61.298759 63.629242-87.216552 47.527724-25.917793 96.150069-28.919172 108.544-6.673655 12.429241 22.245517-16.066207 61.298759-63.593931 87.216552z" p-id="3990" fill="#d81e06"></path></svg>