<?xml version="1.0" standalone="no"?><!DOCTYPE svg PUBLIC "-//W3C//DTD SVG 1.1//EN" "http://www.w3.org/Graphics/SVG/1.1/DTD/svg11.dtd"><svg t="1604498636455" class="icon" viewBox="0 0 1041 1024" version="1.1" xmlns="http://www.w3.org/2000/svg" p-id="18546" xmlns:xlink="http://www.w3.org/1999/xlink" width="260.25" height="256"><defs><style type="text/css"></style></defs><path d="M1040.527079 294.850678L369.335114 104.607652v519.448439l671.191965-192.098633v-137.10678z" fill="#FBB713" p-id="18547"></path><path d="M445.033456 283.491591l-58.980541-159.963689-16.700459-4.855793-0.017342 505.383982 671.191965-192.098633v-91.514353l-374.589733 108.891154c-110.503971 32.117601-220.90389-50.777719-220.90389-165.842668z" fill="#010100" opacity=".25" p-id="18548"></path><path d="M126.163945 1024H67.287457V174.531068h58.876488v849.468932z" fill="#062635" p-id="18549"></path><path d="M126.163945 223.106339l-58.876488 75.681v-124.256271h58.876488v48.575271z" fill="#060606" opacity=".35" p-id="18550"></path><path d="M193.45136 96.716988a96.716988 96.716988 0 1 1-193.433976 0 96.716988 96.716988 0 0 1 193.433976 0z" fill="#062635" p-id="18551"></path><path d="M156.304545 39.956238a21.747015 21.747015 0 1 1-43.494031 0 21.747015 21.747015 0 0 1 43.494031 0z" fill="#FFFFFF" p-id="18552"></path><path d="M134.574872 155.610819a96.73433 96.73433 0 0 1-96.734331-96.734331c0-16.943249 4.75174-32.637865 12.416956-46.494216-29.828442 16.492354-50.257456 47.864244-50.257456 84.334716a96.73433 96.73433 0 0 0 96.734331 96.716988c36.470473 0 67.842363-20.429014 84.317374-50.240113a95.520382 95.520382 0 0 1-46.476874 12.416956z" fill="#060606" opacity=".35" p-id="18553"></path><path d="M500.389494 363.404068c0 142.933731-58.668383 258.796416-131.05438 258.796416-72.368655 0-131.037038-115.862686-131.037039-258.796416 0-142.916389 58.668383-258.796416 131.037039-258.796416 72.385998 0 131.05438 115.880028 131.05438 258.796416z" fill="#FBB713" p-id="18554"></path><path d="M500.389494 363.404068c0 142.933731-58.668383 258.796416-131.05438 258.796416-72.368655 0-131.037038-115.862686-131.037039-258.796416 0-142.916389 58.668383-258.796416 131.037039-258.796416 72.385998 0 131.05438 115.880028 131.05438 258.796416z" fill="#060606" opacity=".35" p-id="18555"></path><path d="M367.739639 108.683049L115.273095 361.166935a10.31856 10.31856 0 0 1-14.584721 0l-3.260318-3.260318a10.31856 10.31856 0 0 1 0-14.584721L349.8946 90.855353a10.31856 10.31856 0 0 1 14.584721 0l3.260318 3.260318a10.301218 10.301218 0 0 1 0 14.567378z" fill="#062635" p-id="18556"></path><path d="M78.039569 349.287584l277.196403 277.213745a10.231849 10.231849 0 0 0 14.4113 0l3.208291-3.242975c3.988687-3.971345 3.988687-10.40527 0-14.393958L95.65916 331.650651a10.197165 10.197165 0 0 0-14.411299 0l-3.208292 3.225634a10.179823 10.179823 0 0 0 0 14.411299z" fill="#062635" p-id="18557"></path><path d="M830.912907 312.747743a17.134012 17.134012 0 0 1-4.630345-0.641658l-251.911596-69.385811a17.324775 17.324775 0 0 1-12.104798-21.313462 17.307433 17.307433 0 0 1 21.313463-12.12214l251.928938 69.385811a17.342117 17.342117 0 0 1-4.595662 34.07726z" fill="#EDEDED" p-id="18558"></path></svg>