<?xml version="1.0" standalone="no"?><!DOCTYPE svg PUBLIC "-//W3C//DTD SVG 1.1//EN" "http://www.w3.org/Graphics/SVG/1.1/DTD/svg11.dtd"><svg t="1604495952347" class="icon" viewBox="0 0 1024 1024" version="1.1" xmlns="http://www.w3.org/2000/svg" p-id="7076" xmlns:xlink="http://www.w3.org/1999/xlink" width="256" height="256"><defs><style type="text/css"></style></defs><path d="M547 866.5c-0.9 0-1.9-0.1-2.8-0.2-10.9-1.6-18.5-11.7-16.9-22.6l79.6-559.3c15.7-126.5 124-222.2 251.8-222.2 11 0 20 8.9 20 20s-8.9 20-20 20c-107.8 0-199 80.6-212.3 187.6l-79.7 559.7c-1.4 9.8-9.9 17-19.7 17z" fill="#55422D" p-id="7077"></path><path d="M740.7 585.2c0 40.1 9.1 283.8-11.8 314.7-34.8 51.5-114.9 43.2-181.7 43.2-53.4 0-136.5 12.8-171.5-22.2s-22-282.3-22-335.8c0 0 30.2 22.4 86.9 22.4 118.9 0 121.4-56.4 208.2-56.4 50 0.1 91.9 34.1 91.9 34.1z" fill="#689143" p-id="7078"></path><path d="M685.6 960H409.9c-32.9 0-60.7-25.7-63.2-58.6l-50.5-572.9v-0.9c0-27.7 22.5-50.2 50.2-50.2h402.8c27.7 0 50.2 22.5 50.2 50.2l-0.1 1.8-50.5 572.3c-2.5 32.6-30.3 58.3-63.2 58.3zM336.1 327l50.4 571.2c0.9 12.4 11.2 21.9 23.4 21.9h275.7c12.2 0 22.5-9.5 23.4-21.7L759.4 327c-0.3-5.3-4.8-9.6-10.2-9.6H346.3c-5.4 0-9.8 4.2-10.2 9.6z" fill="#55422D" p-id="7079"></path><path d="M425.1 806.3c-5 0.5-9.9-1.1-13.8-4.2-3.9-3.2-6.3-7.8-6.8-12.7l-8-84.3c-1-10.4 6.6-19.6 17-20.5 10.4-1 19.6 6.6 20.5 17l8 84.3c0.5 5-1.1 9.9-4.2 13.8-3.1 3.7-7.7 6.1-12.7 6.6z m0 0M437.6 893.4c-5 0.5-9.9-1.1-13.8-4.2-3.9-3.2-6.3-7.8-6.8-12.7l-4-33.6c-1-10.4 6.6-19.6 17-20.5 10.4-1 19.6 6.6 20.5 17l4 33.6c0.5 5-1.1 9.9-4.2 13.8-3.1 3.7-7.7 6.2-12.7 6.6z m0 0" fill="#FFFFFF" p-id="7080"></path><path d="M493.4 316.3s-122-48.1-147-20.5C318 327.2 338 471.7 338 471.7c-85.9 0-155.5-69.6-155.5-155.5S252.1 160.7 338 160.7s155.4 69.7 155.4 155.6z" fill="#F4A638" p-id="7081"></path><path d="M685.6 960H409.9c-32.9 0-60.7-25.7-63.2-58.6l-50.5-572.9v-0.9c0-27.7 22.5-50.2 50.2-50.2h402.8c27.7 0 50.2 22.5 50.2 50.2l-0.1 1.8-50.5 572.3c-2.5 32.6-30.3 58.3-63.2 58.3zM336.1 327l50.4 571.2c0.9 12.4 11.2 21.9 23.4 21.9h275.7c12.2 0 22.5-9.5 23.4-21.7L759.4 327c-0.3-5.3-4.8-9.6-10.2-9.6H346.3c-5.4 0-9.8 4.2-10.2 9.6z" fill="#55422D" p-id="7082"></path><path d="M337.9 491.7c-96.7 0-175.4-78.7-175.4-175.4s78.7-175.4 175.4-175.4 175.4 78.7 175.4 175.4h-39.9c0-74.7-60.8-135.5-135.5-135.5s-135.5 60.8-135.5 135.5 60.8 135.5 135.5 135.5v39.9z" fill="#55422D" p-id="7083"></path></svg>