<?xml version="1.0" standalone="no"?><!DOCTYPE svg PUBLIC "-//W3C//DTD SVG 1.1//EN" "http://www.w3.org/Graphics/SVG/1.1/DTD/svg11.dtd"><svg t="1628431236293" class="icon" viewBox="0 0 1024 1024" version="1.1" xmlns="http://www.w3.org/2000/svg" p-id="31460" xmlns:xlink="http://www.w3.org/1999/xlink" width="128" height="128"><defs><style type="text/css"></style></defs><path d="M539.172 193.124l-285.608 285.12a39.998 39.998 0 0 0-10.014 16.684l-47.824 157.45a40 40 0 0 0 48.95 50.174l161.45-44.724a40.016 40.016 0 0 0 17.586-10.244l285.14-284.726c46.552-44.67 46.55-125.038 0-169.708-46.788-46.788-122.918-46.792-169.68-0.026z m-164.542 390.412l-81.22 22.5 23.772-78.262 214.194-213.826 56.576 56.576z m277.674-277.272l-7.742 7.73-56.568-56.568 7.722-7.708c15.594-15.598 40.972-15.598 56.566 0 15.598 15.594 15.598 40.97 0.022 56.546zM944 624V160c0-44.112-35.888-80-80-80H160c-44.112 0-80 35.888-80 80v704c0 44.112 35.888 80 80 80h704c44.112 0 80-35.888 80-80H234c-53.072-2.112-53.032-77.906 0-80h750c22.092 0 40 17.908 40 40v40c0 88.224-71.776 160-160 160H160c-88.224 0-160-71.776-160-160V160C0 71.776 71.776 0 160 0h704c88.224 0 160 71.776 160 160v464c-2.112 53.072-77.906 53.032-80 0z" p-id="31461"></path></svg>