<?xml version="1.0" standalone="no"?><!DOCTYPE svg PUBLIC "-//W3C//DTD SVG 1.1//EN" "http://www.w3.org/Graphics/SVG/1.1/DTD/svg11.dtd"><svg t="1628351571814" class="icon" viewBox="0 0 1024 1024" version="1.1" xmlns="http://www.w3.org/2000/svg" p-id="25923" xmlns:xlink="http://www.w3.org/1999/xlink" width="128" height="128"><defs><style type="text/css"></style></defs><path d="M511.916 67.662c-245.047 0-443.698 198.65-443.698 443.698s198.65 443.698 443.698 443.698 443.698-198.65 443.698-443.698S756.963 67.662 511.916 67.662z m-206 620.441c-26.188 0-47.492-21.305-47.492-47.492s21.305-47.492 47.492-47.492 47.492 21.305 47.492 47.492-21.305 47.492-47.492 47.492z m0-129.252c-26.188 0-47.492-21.305-47.492-47.492s21.305-47.492 47.492-47.492 47.492 21.305 47.492 47.492-21.305 47.492-47.492 47.492z m0-129.252c-26.188 0-47.492-21.305-47.492-47.492s21.305-47.492 47.492-47.492 47.492 21.305 47.492 47.492-21.305 47.492-47.492 47.492zM736.24 655.611H427.027c-8.284 0-15-6.716-15-15s6.716-15 15-15H736.24c8.284 0 15 6.716 15 15s-6.716 15-15 15z m0-129.252H427.027c-8.284 0-15-6.716-15-15s6.716-15 15-15H736.24c8.284 0 15 6.716 15 15s-6.716 15-15 15z m0-129.252H427.027c-8.284 0-15-6.716-15-15s6.716-15 15-15H736.24c8.284 0 15 6.716 15 15s-6.716 15-15 15z" fill="" p-id="25924"></path></svg>