<?xml version="1.0" standalone="no"?><!DOCTYPE svg PUBLIC "-//W3C//DTD SVG 1.1//EN" "http://www.w3.org/Graphics/SVG/1.1/DTD/svg11.dtd"><svg t="1628416846997" class="icon" viewBox="0 0 1024 1024" version="1.1" xmlns="http://www.w3.org/2000/svg" p-id="1350" xmlns:xlink="http://www.w3.org/1999/xlink" width="128" height="128"><defs><style type="text/css"></style></defs><path d="M759.29088 536.21248l-146.80064-146.79552c-10.6496-11.17184-28.80512-11.17184-39.6288 0l-302.68416 303.0272h-0.69632c-4.71552 5.59104-8.02816 12.5696-8.02816 19.90144v146.97984c0 15.70816 12.5696 28.27776 28.10368 28.27776h147.15392c6.98368 0 14.31552-2.80064 19.90144-8.38144l302.68416-303.21152c11.16672-10.99776 11.16672-29.14816-0.00512-39.79776z m-459.65824 313.4464v-87.15776l86.84032 87.15776H299.63264z m131.26144-8.12032l-123.9552-123.15136 204.90752-204.71296 123.7504 123.76064-204.70272 204.10368z m234.86464-232.2688L539.76064 483.2768l55.29088-55.0912 126.00832 126.0032-55.30112 55.08096z" p-id="1351"></path><path d="M926.28992 307.54304L657.7408 38.9888c-6.90688-6.62528-16.1536-11.04384-26.368-11.04384H191.60576c-27.47392 0-52.3264 11.45856-70.27712 29.27104-17.95072 17.9456-29.27104 42.94144-29.27104 70.41536v766.44864c0 27.61216 11.32032 52.45952 29.27104 70.41024h0.13824a98.92864 98.92864 0 0 0 70.13888 28.99968h645.90336a98.9696 98.9696 0 0 0 69.31456-28.17024l0.96256-0.6912 0.13824-0.4096c17.95072-17.95072 29.12768-42.53184 29.12768-70.01088V333.91104a37.49376 37.49376 0 0 0-10.76224-26.368z m-272.55296-208.44544l212.44928 212.5824-40.96-0.13824h-131.584a39.424 39.424 0 0 1-28.16512-11.73504l-1.10592-1.10592c-6.6304-6.90688-10.63424-16.8448-10.63424-27.06432V99.0976z m229.6576 810.4704c0 6.912-2.89792 18.24256-7.31648 23.07072h-0.41472a24.58624 24.58624 0 0 1-17.536 7.3216H171.12576a26.05056 26.05056 0 0 1-17.9456-7.3216c-4.41856-4.68992-7.31648-11.03872-7.31648-17.95072V107.15136c0-6.90176 2.89792-13.11744 7.31648-17.9456 4.69504-4.41856 10.9056-7.3216 17.9456-7.3216h437.87264v189.75744c0 22.36928 9.1136 43.21792 23.60832 58.2656l1.24416 1.51552c15.46752 15.32928 36.58752 24.85248 59.78624 24.85248h189.75744V909.568z" p-id="1352"></path></svg>