<?xml version="1.0" standalone="no"?><!DOCTYPE svg PUBLIC "-//W3C//DTD SVG 1.1//EN" "http://www.w3.org/Graphics/SVG/1.1/DTD/svg11.dtd"><svg t="1628424805623" class="icon" viewBox="0 0 1024 1024" version="1.1" xmlns="http://www.w3.org/2000/svg" p-id="11455" xmlns:xlink="http://www.w3.org/1999/xlink" width="128" height="128"><defs><style type="text/css"></style></defs><path d="M173.682284 1023.967919a115.711406 115.711406 0 0 1-81.574205-33.233936l-35.009319-34.448671a117.222039 117.222039 0 0 1-1.71309-164.970515L394.047882 445.45761A328.49269 328.49269 0 0 1 533.119598 60.012483 376.568209 376.568209 0 0 1 729.034738 0.007631a273.035312 273.035312 0 0 1 185.71447 70.999771 27.253696 27.253696 0 0 1-3.940106 43.450178l-181.821085 112.004903a30.181521 30.181521 0 0 0-9.826904 41.425618L902.523979 571.478699a27.253696 27.253696 0 0 1-30.555287 40.382191l-1.650795-0.467206a447.801583 447.801583 0 0 0-120.539203-18.734969 295.897269 295.897269 0 0 0-135.240626 31.380684L257.000725 989.052041a115.742553 115.742553 0 0 1-83.318441 34.915878zM729.034738 54.515023a322.574744 322.574744 0 0 0-167.259825 51.875463 274.156607 274.156607 0 0 0-110.883608 335.718813 27.238122 27.238122 0 0 1-5.855652 29.184814L94.148212 829.454398a62.449897 62.449897 0 0 0 0.903266 87.881489l35.149481 34.464245A61.733515 61.733515 0 0 0 173.682284 969.460527a61.515485 61.515485 0 0 0 44.38459-18.548087L578.687778 582.769516a27.284843 27.284843 0 0 1 6.77449-5.045827 349.03419 349.03419 0 0 1 164.331999-39.556793 434.190309 434.190309 0 0 1 72.775155 6.338431l-149.957621-248.273382a84.72006 84.72006 0 0 1 27.767622-116.178612l148.260106-91.323242A216.659095 216.659095 0 0 0 729.034738 54.515023z" fill="#39434E" p-id="11456"></path><path d="M947.157746 262.577524a274.60824 274.60824 0 0 1-66.171974 180.668643l29.480712 48.589446a329.177925 329.177925 0 0 0 86.962651-280.012258 27.253696 27.253696 0 0 0-41.192015-18.843984l-165.313132 101.74194 28.312696 46.673901zM208.753897 889.210073a38.933851 38.933851 0 1 1 12.723582-53.57298 38.980572 38.980572 0 0 1-12.723582 53.57298zM571.025596 438.558531a23.360311 23.360311 0 0 1-5.76221-46.004238l83.038118-21.195589a23.360311 23.360311 0 0 1 11.555567 45.272282l-83.038118 21.195589a23.484899 23.484899 0 0 1-5.793357 0.731956zM529.335228 369.256276a23.360311 23.360311 0 0 1-5.76221-46.019812l83.038118-21.195589a23.360311 23.360311 0 0 1 11.555567 45.287856l-83.038118 21.180015a23.422605 23.422605 0 0 1-5.793357 0.731957zM616.811805 503.842813a23.375884 23.375884 0 0 1-5.76221-46.019812l83.038118-21.180015a23.360311 23.360311 0 0 1 11.57114 45.256709l-83.038117 21.211162a24.294723 24.294723 0 0 1-5.808931 0.731956z" fill="#39434E" p-id="11457"></path></svg>