<?xml version="1.0" standalone="no"?><!DOCTYPE svg PUBLIC "-//W3C//DTD SVG 1.1//EN" "http://www.w3.org/Graphics/SVG/1.1/DTD/svg11.dtd"><svg t="1612672764875" class="icon" viewBox="0 0 1024 1024" version="1.1" xmlns="http://www.w3.org/2000/svg" p-id="4304" xmlns:xlink="http://www.w3.org/1999/xlink" width="64" height="64"><defs><style type="text/css"></style></defs><path d="M946.01306208 481.63294387c5.33332992-167.89105188-45.33330527-341.38754167-61.76866921-365.33310459l-5.55101701-8.05441665-3.2108818 9.36053827c-1.41496514 4.13605188-2.88435204 8.97958588-4.51700426 14.25849402-6.69387329 21.65985035-16.38094218 53.00676956-38.09521429 86.20402807A433.90449065 433.90449065 0 0 0 511.99972789 76.62639455a435.37387756 435.37387756 0 0 0-305.95899234 745.03354763 39.56460119 39.56460119 0 1 1 38.74827466 31.67344983c-1.1428563 0-2.17686905-0.21768707-3.31972535-0.32653062A435.37387756 435.37387756 0 0 0 947.37360545 512.00027211c0-10.23128572-0.65306123-20.29930698-1.36054337-30.36732823zM880.4348716 134.5311199l0.707483-2.39455613c25.08842007 60.02717347 90.99314032 326.04061224 29.49657991 502.74798554-71.51015902 157.38765646-253.27875339 217.95904762-536.92483415 178.93866326 102.25843963-16.59862925 391.9997551-90.99314032 458.44869301-397.5507721l5.44217347-25.85032398-14.31291667 19.86393368c-51.21085204 75.86389795-239.34678911 320.65286055-509.87723213 320.65286054H313.36039625c-23.40134609 0-47.1836437 0.97959098-70.42172448-2.77550849-33.30610205-6.91156037-56.54418197-55.67343452-53.00676955-114.66659525 5.98639116-97.90470068 84.78906293-208.59850934 288.27192856-225.63251191 332.78890732-27.86392857 381.44193877-185.85022364 402.23104082-253.33317516z" fill="#68BD45" p-id="4305"></path></svg>