<svg width="1140" height="1024" xmlns="http://www.w3.org/2000/svg" class="icon">
 <defs>
  <style type="text/css"/>
 </defs>
 <g>
  <title>background</title>
  <rect fill="none" id="canvas_background" height="402" width="582" y="-1" x="-1"/>
 </g>
 <g>
  <title>Layer 1</title>
  <ellipse stroke="#000" ry="371.33353" rx="377.000088" id="svg_2" cy="500.666806" cx="567.171385" stroke-width="0" fill="#fff"/>
  <path id="svg_1" class="selected" fill="#68bd45" d="m1126.133,450.542l-224.66,-388.972c-19.503,-33.786 -67.403,-61.57 -106.412,-61.57l-449.32,0c-38.897,0 -86.907,27.784 -106.411,61.458l-224.66,388.972c-19.56,33.785 -19.56,88.908 0,122.916l224.66,388.974c19.504,33.785 67.403,61.458 106.412,61.458l449.32,0c38.897,0 86.852,-27.784 106.411,-61.458l224.66,-388.973c19.56,-33.73 19.56,-88.964 0,-122.805zm-604.298,-235.384a46.343,46.343 0 1 1 92.632,0l0,276.782a46.343,46.343 0 1 1 -92.632,0l0,-276.782zm46.345,590.572a314.013,314.013 0 0 1 -187.32,-565.845a41.176,41.176 0 1 1 49.178,66.07a231.661,231.661 0 1 0 369.747,185.985a232.773,232.773 0 0 0 -94.076,-186.318a41.176,41.176 0 0 1 48.677,-66.681a314.068,314.068 0 0 1 -186.207,566.79l0.001,-0.001z"/>
 </g>
</svg>