<svg width="1024" height="1024" xmlns="http://www.w3.org/2000/svg" class="icon">
 <defs>
  <style type="text/css"/>
 </defs>
 <g>
  <title>background</title>
  <rect fill="none" id="canvas_background" height="402" width="582" y="-1" x="-1"/>
 </g>
 <g>
  <title>Layer 1</title>
  <path id="svg_8" d="m880.695637,127.47544c0,0 -50.001466,106.003109 -50.001466,106.003109c0,0 107.336481,228.006686 107.336481,228.006686c0,0 -2.666745,-107.336481 -2.666745,-107.336481c0,0 -16.000469,-110.003226 -16.003635,-110.141604c0.003166,0.138378 -23.330851,-85.864144 -23.330851,-85.864144c0,0 -14.000411,-35.33437 -14.000411,-35.33437c0,0 -10.666979,24.66739 -10.670144,24.529014c0.003165,0.138376 3.336596,20.138962 3.333431,20.000586" stroke-opacity="null" stroke-width="0" stroke="#000" fill="#ffffff"/>
  <ellipse stroke="#000" ry="416" rx="423" id="svg_6" cy="498.188698" cx="516.504741" stroke-opacity="null" stroke-width="0" fill="#ffffff"/>
  <ellipse stroke="#000" transform="rotate(-50.27702331542969 256.4225463867188,810.2431640625) " ry="107.411016" rx="42.72449" id="svg_5" cy="810.24317" cx="256.422535" stroke-opacity="null" stroke-width="0" fill="#ffffff"/>
  <path id="svg_1" fill="#68BD45" d="m946.01306,481.63294c5.33333,-167.89105 -45.3333,-341.38754 -61.76867,-365.3331l-5.55101,-8.05442l-3.21089,9.36054c-1.41496,4.13605 -2.88435,8.97959 -4.517,14.25849c-6.69387,21.65986 -16.38094,53.00677 -38.09521,86.20403a433.90449,433.90449 0 0 0 -320.87055,-141.44209a435.37388,435.37388 0 0 0 -305.95899,745.03355a39.5646,39.5646 0 1 1 38.74827,31.67345c-1.14286,0 -2.17687,-0.21769 -3.31973,-0.32653a435.37388,435.37388 0 0 0 705.90433,-341.00659c0,-10.23128 -0.65307,-20.2993 -1.36055,-30.36733zm-65.57819,-347.10182l0.70748,-2.39456c25.08842,60.02718 90.99314,326.04062 29.49658,502.74799c-71.51015,157.38766 -253.27875,217.95905 -536.92483,178.93866c102.25844,-16.59863 391.99976,-90.99314 458.44869,-397.55077l5.44218,-25.85032l-14.31292,19.86393c-51.21085,75.8639 -239.34679,320.65286 -509.87723,320.65286l-0.05442,0c-23.40135,0 -47.18365,0.97959 -70.42173,-2.77551c-33.3061,-6.91156 -56.54418,-55.67343 -53.00677,-114.66659c5.98639,-97.9047 84.78907,-208.59851 288.27193,-225.63251c332.78891,-27.86393 381.44194,-185.85023 402.23104,-253.33318z"/>
 </g>
</svg>