<?xml version="1.0" standalone="no"?><!DOCTYPE svg PUBLIC "-//W3C//DTD SVG 1.1//EN" "http://www.w3.org/Graphics/SVG/1.1/DTD/svg11.dtd"><svg t="1628350005411" class="icon" viewBox="0 0 1024 1024" version="1.1" xmlns="http://www.w3.org/2000/svg" p-id="14470" xmlns:xlink="http://www.w3.org/1999/xlink" width="128" height="128"><defs><style type="text/css"></style></defs><path d="M864.844 982.888c-55.827 29.127-123.79 9.71-155.345-46.118-24.272-43.69-16.99-94.663 14.564-128.644l-43.69-82.527c-21.846 7.282-46.119 12.136-70.391 12.136-109.227 0-199.036-77.672-216.026-179.617H301.72c-16.991 43.69-58.255 75.245-106.8 75.245-63.108 0-114.08-50.972-114.08-114.081S131.811 405.2 194.92 405.2c48.545 0 89.809 31.554 106.8 72.817h92.236c19.418-99.517 109.226-174.762 213.598-174.762 16.991 0 33.982 2.427 50.973 4.854l36.409-87.381c-33.982-31.554-46.118-82.527-29.127-126.218C690.08 36.257 755.617 9.557 813.87 33.83c58.255 24.273 84.954 89.809 63.11 148.063-19.419 43.69-63.11 70.39-109.228 70.39l-38.836 89.809c58.255 38.836 94.663 104.372 94.663 179.617 0 67.963-31.554 126.218-80.1 167.48l43.692 82.528c46.117-7.282 92.235 14.563 116.508 58.254 36.409 55.827 16.99 123.79-38.836 152.917z" fill="#F7874B" p-id="14471"></path></svg>