<?xml version="1.0" standalone="no"?><!DOCTYPE svg PUBLIC "-//W3C//DTD SVG 1.1//EN" "http://www.w3.org/Graphics/SVG/1.1/DTD/svg11.dtd"><svg t="1597809539908" class="icon" viewBox="0 0 1024 1024" version="1.1" xmlns="http://www.w3.org/2000/svg" p-id="3659" width="128" height="128" xmlns:xlink="http://www.w3.org/1999/xlink"><defs><style type="text/css"></style></defs><path d="M634.88 198.656h-266.24v36.864c0 12.288-8.192 20.48-20.48 20.48s-20.48-8.192-20.48-20.48v-36.864h-143.36c-34.816 0-61.44 26.624-61.44 61.44v552.96c0 34.816 26.624 61.44 61.44 61.44h655.36c34.816 0 61.44-26.624 61.44-61.44v-88.064c0-12.288 8.192-20.48 20.48-20.48s20.48 8.192 20.48 20.48v88.064c0 57.344-45.056 102.4-102.4 102.4h-655.36c-57.344 0-102.4-45.056-102.4-102.4v-552.96c0-57.344 45.056-102.4 102.4-102.4h143.36v-28.672c0-12.288 8.192-20.48 20.48-20.48s20.48 8.192 20.48 20.48v28.672h266.24v-28.672c0-12.288 8.192-20.48 20.48-20.48s20.48 8.192 20.48 20.48v28.672h163.84c57.344 0 102.4 45.056 102.4 102.4v278.528c0 12.288-8.192 20.48-20.48 20.48s-20.48-8.192-20.48-20.48v-278.528c0-34.816-26.624-61.44-61.44-61.44h-163.84v36.864c0 12.288-8.192 20.48-20.48 20.48s-20.48-8.192-20.48-20.48v-36.864z m-274.432 344.064c12.288 0 20.48 8.192 20.48 20.48s-8.192 20.48-20.48 20.48h-86.016c-12.288 0-20.48-8.192-20.48-20.48s8.192-20.48 20.48-20.48h86.016z m194.56 0c12.288 0 20.48 8.192 20.48 20.48s-8.192 20.48-20.48 20.48h-86.016c-12.288 0-20.48-8.192-20.48-20.48s8.192-20.48 20.48-20.48h86.016z m194.56 0c12.288 0 20.48 8.192 20.48 20.48s-8.192 20.48-20.48 20.48h-86.016c-12.288 0-20.48-8.192-20.48-20.48s8.192-20.48 20.48-20.48h86.016z m-389.12 143.36c12.288 0 20.48 8.192 20.48 20.48s-8.192 20.48-20.48 20.48h-86.016c-12.288 0-20.48-8.192-20.48-20.48s8.192-20.48 20.48-20.48h86.016z m194.56 0c12.288 0 20.48 8.192 20.48 20.48s-8.192 20.48-20.48 20.48h-86.016c-12.288 0-20.48-8.192-20.48-20.48s8.192-20.48 20.48-20.48h86.016z m194.56 0c12.288 0 20.48 8.192 20.48 20.48s-8.192 20.48-20.48 20.48h-86.016c-12.288 0-20.48-8.192-20.48-20.48s8.192-20.48 20.48-20.48h86.016z m-389.12-307.2c12.288 0 20.48 8.192 20.48 20.48s-8.192 20.48-20.48 20.48h-86.016c-12.288 0-20.48-8.192-20.48-20.48s8.192-20.48 20.48-20.48h86.016z m194.56 0c12.288 0 20.48 8.192 20.48 20.48s-8.192 20.48-20.48 20.48h-86.016c-12.288 0-20.48-8.192-20.48-20.48s8.192-20.48 20.48-20.48h86.016z m194.56 0c12.288 0 20.48 8.192 20.48 20.48s-8.192 20.48-20.48 20.48h-86.016c-12.288 0-20.48-8.192-20.48-20.48s8.192-20.48 20.48-20.48h86.016z" p-id="3660" fill="#2c2c2c"></path></svg>