<?xml version="1.0" standalone="no"?><!DOCTYPE svg PUBLIC "-//W3C//DTD SVG 1.1//EN" "http://www.w3.org/Graphics/SVG/1.1/DTD/svg11.dtd"><svg t="1598180703581" class="icon" viewBox="0 0 1024 1024" version="1.1" xmlns="http://www.w3.org/2000/svg" p-id="7474" xmlns:xlink="http://www.w3.org/1999/xlink" width="128" height="128"><defs><style type="text/css"></style></defs><path d="M1023.882 938.59c0 11.78-9.562 21.306-21.34 21.306H21.44c-11.778 0-21.324-9.528-21.324-21.306V170.766c0-11.778 9.544-21.338 21.324-21.338h981.102c11.778 0 21.34 9.56 21.34 21.338v767.824z" fill="#F5F7FA" p-id="7475"></path><path d="M511.984 149.428H21.44c-11.778 0-21.324 9.56-21.324 21.338v767.824c0 11.78 9.544 21.306 21.324 21.306h490.542V149.428z" fill="#CCD1D9" p-id="7476"></path><path d="M511.984 959.896L85.426 874.604V64.104l426.558 85.324z" fill="#E6E9ED" p-id="7477"></path><path d="M597.292 234.752h127.968v127.97h-127.968z" fill="#ED5564" p-id="7478"></path><path d="M767.942 234.752h127.968v127.97h-127.968z" fill="#FC6E51" p-id="7479"></path><path d="M597.292 405.368h127.968v127.972h-127.968z" fill="#FFCE54" p-id="7480"></path><path d="M767.942 405.368h127.968v127.972h-127.968z" fill="#A0D468" p-id="7481"></path><path d="M597.292 575.984h127.968v127.972h-127.968z" fill="#48CFAD" p-id="7482"></path><path d="M767.942 575.984h127.968v127.972h-127.968z" fill="#4FC2E9" p-id="7483"></path><path d="M597.292 746.632h127.968v127.97h-127.968z" fill="#5D9CEC" p-id="7484"></path><path d="M767.942 746.632h127.968v127.97h-127.968z" fill="#AC92EB" p-id="7485"></path></svg>